HIERARCHY
ROOT pelvis
{
  OFFSET 0 100 0
  CHANNELS 6 Xposition Yposition Zposition Zrotation Xrotation Yrotation
  JOINT pelvis_right_femur
  {
    OFFSET -10.78128 -3.44521 -0.5502486
    CHANNELS 3 Zrotation Xrotation Yrotation
    JOINT right_femur_tibia
    {
      OFFSET -0.8047443 -44.0398 -0.1307829
      CHANNELS 3 Zrotation Xrotation Yrotation
      JOINT right_tibia_foot
      {
        OFFSET 3.006224 -47.83518 -5
        CHANNELS 3 Zrotation Xrotation Yrotation
        End Site
        {
          OFFSET 0 -5 15
        }
      }
    }
  }
  JOINT pelvis_left_femur
  {
    OFFSET 10.78128 -3.44521 -0.5502486
    CHANNELS 3 Zrotation Xrotation Yrotation
    JOINT left_femur_tibia
    {
      OFFSET 0.8047443 -44.0398 -0.1307829
      CHANNELS 3 Zrotation Xrotation Yrotation
      JOINT left_tibia_foot
      {
        OFFSET -4.370144 -48.10324 -4.275266
        CHANNELS 3 Zrotation Xrotation Yrotation
        End Site
        {
          OFFSET 0 -5 15
        }
      }
    }
  }
  JOINT pelvis_spine1
  {
    OFFSET 0 6.468898 -3.129235
    CHANNELS 3 Zrotation Xrotation Yrotation
    JOINT spine1
    {
      OFFSET 0 23.15396 4.99043
      CHANNELS 3 Zrotation Xrotation Yrotation
      JOINT spine2
      {
        OFFSET 0 20.79997 -5.064912
        CHANNELS 3 Zrotation Xrotation Yrotation
        JOINT neck
        {
          OFFSET 0 14.38658 9.616178
          CHANNELS 3 Zrotation Xrotation Yrotation
          End Site
          {
            OFFSET 0 20 0
          }
        }
      }
      JOINT right_manubrium
      {
        OFFSET -5.722621 16.35077 3.967754
        CHANNELS 3 Zrotation Xrotation Yrotation
        JOINT right_clavicle
        {
          OFFSET -13.16364 1.694482 -4.693211
          CHANNELS 3 Zrotation Xrotation Yrotation
          JOINT right_humerus
          {
            OFFSET -28.5034 -0.3100689 -2.792744
            CHANNELS 3 Zrotation Xrotation Yrotation
            JOINT right_radius
            {
              OFFSET -25.15693 0.02248979 -1.271978
              CHANNELS 3 Zrotation Xrotation Yrotation
              End Site
              {
                OFFSET -15 0 0
              }
            }
          }
        }
      }
      JOINT left_manubrium
      {
        OFFSET 5.722621 16.35077 3.967754
        CHANNELS 3 Zrotation Xrotation Yrotation
        JOINT left_clavicle
        {
          OFFSET 13.16364 1.694482 -4.693211
          CHANNELS 3 Zrotation Xrotation Yrotation
          JOINT left_humerus
          {
            OFFSET 29.39168 -1.063119 -2.237045
            CHANNELS 3 Zrotation Xrotation Yrotation
            JOINT left_radius
            {
              OFFSET 24.59957 -0.9528479 0.9047498
              CHANNELS 3 Zrotation Xrotation Yrotation
              End Site
              {
                OFFSET 15 -0 -0
              }
            }
          }
        }
      }
    }
  }
}
MOTION
Frames: 15
Frame Time: 0.0416666666667
-1874.751 92.69816 2007.128 -9.998401 3.456716 -108.4732 5.801879 1.741987 -6.468124 -0 7.12602 -0 -16.21892 4.603858 1.953913 0.2421335 -6.841067 -1.496558 -0 36.11075 -0 5.070208 -3.220581 14.75922 1.011126 -2.794266 5.202499 -0.8736414 16.52604 -4.997685 1.434756 22.67692 3.587621 2.943502 -17.23936 3.972533 -4.090879 -23.68567 11.98925 93.83847 13.32646 -15.07021 -0 0 12.41402 -27.89947 10.76298 14.18459 5.686877 -27.62634 -9.831508 -88.75801 5.315898 19.74345 0 0 -15.07 18.87546 13.96406 -9.82429
-1881.392 92.50228 2005.29 -9.593247 3.415823 -109.2193 5.830625 4.783744 -5.953178 -0 6.943288 -0 -15.65799 2.392493 2.110686 0.7821752 -10.26096 -1.618703 -0 32.47436 -0 5.150609 -3.078203 15.61727 0.878366 -2.767954 5.692818 -0.9465855 16.24245 -4.66554 1.395988 22.53302 3.597238 2.893447 -17.45957 4.014972 -3.908947 -24.52168 11.97478 92.58961 14.05918 -13.59566 -0 0 14.39494 -27.7328 10.70495 14.55545 5.618132 -26.81635 -9.354244 -89.6823 6.029824 21.65424 0 0 -13.74238 17.86556 14.12712 -8.587971
-1887.884 92.04516 2003.554 -9.194876 3.355555 -109.9799 5.766149 7.562259 -5.479831 -0 7.09706 -0 -15.15384 0.3754511 2.318764 1.21101 -13.38336 -1.834775 -0 28.39238 -0 5.358282 -3.067732 16.50649 0.7133486 -2.769479 6.131908 -1.018746 15.97214 -4.354807 1.352332 22.39619 3.626133 2.855531 -17.69927 4.071957 -3.733134 -25.35185 11.95507 91.39589 14.73286 -12.15194 -0 0 16.30947 -27.55739 10.60117 14.91843 5.564566 -26.05192 -8.910278 -90.61184 6.660861 23.50349 0 0 -12.42998 16.9792 14.29867 -7.494856
-1894.232 91.35254 2001.918 -8.857083 3.288918 -110.7308 5.61046 9.99109 -5.053757 -0 7.709022 -0 -14.68885 -1.290088 2.534986 1.499736 -16.05285 -2.118285 -0 24.29655 -0 5.619783 -3.153013 17.3577 0.5254587 -2.782788 6.496541 -1.097217 15.72286 -4.070767 1.313293 22.28441 3.670979 2.828 -17.91383 4.143563 -3.566394 -26.09352 11.92939 90.32645 15.31049 -10.816 -0 0 18.0275 -27.41855 10.4715 15.26187 5.517853 -25.34649 -8.52103 -91.46936 7.200234 25.15312 0 0 -11.18315 16.20876 14.45532 -6.544566
-1900.461 90.48022 2000.367 -8.634242 3.230992 -111.445 5.364479 12.01069 -4.685115 -0 8.915282 -0 -14.25154 -2.451227 2.721271 1.626672 -18.13704 -2.443524 -0 20.57258 -0 5.869938 -3.2991 18.10988 0.3221802 -2.793257 6.766216 -1.191606 15.50368 -3.815135 1.287752 22.21519 3.728303 2.80927 -18.0593 4.229118 -3.41399 -26.67409 11.89601 89.44799 15.75584 -9.654851 -0 0 19.43377 -27.36666 10.3316 15.57999 5.47027 -24.71077 -8.20765 -92.17888 7.642014 26.48013 0 0 -10.03615 15.55143 14.57456 -5.742226
-1906.615 89.50814 1998.879 -8.574063 3.196686 -112.0931 5.029302 13.58426 -4.390046 -0 10.84041 -0 -13.8418 -2.974372 2.849781 1.578594 -19.53377 -2.787569 -0 17.51006 -0 6.064419 -3.477487 18.71614 0.1088804 -2.790787 6.924399 -1.31213 15.32558 -3.587361 1.282495 22.2032 3.794789 2.798504 -18.09911 4.326656 -3.284251 -27.04059 11.85268 88.82012 16.03419 -8.720709 -0 0 20.43836 -27.44957 10.19025 15.87247 5.416675 -24.15596 -7.990372 -92.67523 7.976466 27.38902 0 0 -9.007621 15.01682 14.63981 -5.106363
-1912.744 88.53171 1997.424 -8.70961 3.197615 -112.6441 4.608191 14.68693 -4.189365 -0 13.56598 -0 -13.47192 -2.762302 2.905382 1.350923 -20.17282 -3.132731 -0 15.27305 -0 6.18658 -3.670666 19.14741 -0.1108309 -2.771563 6.95933 -1.466748 15.20047 -3.386904 1.30113 22.25795 3.867697 2.795882 -18.01029 4.433015 -3.187437 -27.16473 11.79747 88.48975 16.11627 -8.049602 -0 0 20.98291 -27.70272 10.04876 16.14157 5.356037 -23.69589 -7.886677 -92.9121 8.187279 27.819 0 0 -8.106496 14.62876 14.64416 -4.66994
-1918.905 87.65182 1995.972 -9.052511 3.238991 -113.067 4.109025 15.28915 -4.105871 -0 17.09809 -0 -13.16499 -1.768426 2.885886 0.9471462 -20.0106 -3.468268 -0 13.89958 -0 6.247537 -3.875352 19.39212 -0.334032 -2.738327 6.864082 -1.657896 15.13942 -3.216189 1.343553 22.38207 3.945204 2.802623 -17.78792 4.544268 -3.133473 -27.04264 11.72976 88.4869 15.98373 -7.664477 -0 0 21.04039 -28.13913 9.902769 16.38733 5.29225 -23.34898 -7.909229 -92.86651 8.252762 27.74463 0 0 -7.342919 14.42274 14.59168 -4.476435
-1925.147 86.96429 1994.495 -9.587066 3.317258 -113.3343 3.547702 15.33973 -4.161233 -0 21.33049 -0 -12.9528 -0.0104087 2.801365 0.3794045 -19.02348 -3.790312 -0 13.323 -0 6.281143 -4.103813 19.45285 -0.5566285 -2.699634 6.636666 -1.879078 15.15072 -3.083754 1.405751 22.56995 4.02643 2.820777 -17.44819 4.655998 -3.129478 -26.69173 11.65116 88.82145 15.63527 -7.581183 -0 0 20.61141 -28.74018 9.745703 16.60202 5.234281 -23.14006 -8.063731 -92.54061 8.150613 27.17315 0 0 -6.741726 14.44087 14.49645 -4.573016
-1931.502 86.54767 1992.97 -10.26368 3.419056 -113.4273 2.952877 14.75657 -4.372297 -0 25.99729 -0 -12.87448 2.41021 2.673914 -0.3275768 -17.21048 -4.099854 -0 13.40061 -0 6.336573 -4.382556 19.34273 -0.7707628 -2.668789 6.281685 -2.111376 15.23792 -3.006864 1.479608 22.80596 4.110947 2.852803 -17.03134 4.763043 -3.177649 -26.14887 11.56649 89.47853 15.09361 -7.813658 -0 0 19.72354 -29.44676 9.573328 16.76513 5.195816 -23.10139 -8.346002 -91.96356 7.865875 26.14498 0 0 -6.354847 14.72516 14.38039 -5.00157
-1937.979 86.44851 1991.383 -10.99322 3.522789 -113.3436 2.370727 13.43597 -4.745893 -0 30.62585 -0 -12.97491 5.283649 2.537765 -1.129295 -14.61326 -4.398989 -0 13.94286 -0 6.469106 -4.746206 19.08325 -0.9619965 -2.662499 5.814356 -2.321094 15.39798 -3.012078 1.552813 23.06278 4.197642 2.90087 -16.60332 4.858592 -3.274058 -25.47172 11.48429 90.41206 14.41137 -8.374412 -0 0 18.43701 -30.1539 9.38855 16.84149 5.194013 -23.27108 -8.738272 -91.19369 7.400883 24.73992 0 0 -6.266578 15.30856 14.27023 -5.787194
-1944.558 86.66613 1989.73 -11.65186 3.604835 -113.1047 1.86504 11.2907 -5.2724 -0 34.53942 -0 -13.29957 8.285985 2.436571 -1.955914 -11.34881 -4.685497 -0 14.75481 -0 6.726581 -5.223133 18.70245 -1.107834 -2.69819 5.265138 -2.462244 15.62055 -3.130947 1.610007 23.30228 4.28296 2.965808 -16.24994 4.933128 -3.409387 -24.73841 11.41641 91.54208 13.66909 -9.267963 -0 0 16.85119 -30.72012 9.204602 16.78671 5.246143 -23.68581 -9.207206 -90.31587 6.782846 23.08185 0 0 -6.58219 16.20333 14.19204 -6.925225
-1951.196 87.14525 1988.007 -12.10939 3.650511 -112.758 1.506104 8.313563 -5.921315 -0 36.98507 -0 -13.88121 11.03182 2.412836 -2.718114 -7.629534 -4.946639 -0 15.70194 -0 7.13049 -5.813729 18.22996 -1.180352 -2.788838 4.679822 -2.488392 15.8899 -3.388668 1.636562 23.48334 4.359345 3.045916 -16.05524 4.974463 -3.5725 -24.03669 11.37566 92.76637 12.95628 -10.47823 -0 0 15.09732 -31.00474 9.043527 16.56262 5.363356 -24.36677 -9.708449 -89.42633 6.060797 21.32594 0 0 -7.392258 17.38952 14.1621 -8.37226
-1957.842 87.78676 1986.212 -12.27887 3.663713 -112.3667 1.347907 4.633844 -6.643928 -0 37.39642 -0 -14.7198 13.19464 2.489847 -3.330392 -3.73946 -5.156002 -0 16.7739 -0 7.65963 -6.473971 17.68872 -1.154654 -2.936557 4.110598 -2.372183 16.18956 -3.78906 1.624416 23.57638 4.415673 3.136286 -16.06766 4.970357 -3.755294 -23.4394 11.37167 93.98852 12.33792 -11.95585 -0 0 13.30925 -30.92642 8.928404 16.15806 5.543745 -25.30303 -10.19922 -88.60626 5.288239 19.62134 0 0 -8.722066 18.80977 14.1774 -10.04801
-1964.453 88.47745 1984.333 -12.15564 3.665939 -111.9947 1.406651 0.5231555 -7.382948 -0 35.64582 -0 -15.76678 14.62372 2.657607 -3.740687 0.02904056 -5.278225 -0 18.08422 -0 8.249394 -7.121352 17.0907 -1.019861 -3.128988 3.601946 -2.120288 16.50552 -4.30568 1.576169 23.57583 4.440749 3.22926 -16.2761 4.913477 -3.954182 -22.98055 11.40709 95.14286 11.83088 -13.61335 -0 0 11.59015 -30.50422 8.874048 15.60095 5.769568 -26.44163 -10.65078 -87.90149 4.505111 18.07137 0 0 -10.49724 20.37233 14.21399 -11.84518
